<svg xmlns="http://www.w3.org/2000/svg" viewBox="0 0 24 24" fill="none" stroke="currentColor" stroke-width="1.5">
  <path d="M12 15.5a3.5 3.5 0 1 0 0-7 3.5 3.5 0 0 0 0 7z"/>
  <path d="M19.4 15a1.65 1.65 0 0 0 .33 1.82l.06.06a2 2 0 0 1-2.83 2.83l-.06-.06a1.65 1.65 0 0 0-1.82-.33 1.65 1.65 0 0 0-1 1.51V21a2 2 0 0 1-4 0v-.09a1.65 1.65 0 0 0-1-1.51 1.65 1.65 0 0 0-1.82.33l-.06.06a2 2 0 0 1-2.83-2.83l.06-.06a1.65 1.65 0 0 0 .33-1.82 1.65 1.65 0 0 0-1.51-1H3a2 2 0 0 1 0-4h.09c.7 0 1.25-.44 1.51-1a1.65 1.65 0 0 0-.33-1.82l-.06-.06a2 2 0 0 1 2.83-2.83l.06.06c.45.45 1.07.68 1.7.59.49-.07 1-.26 1.51-.5V3a2 2 0 0 1 4 0v.09c.51.24 1.02.43 1.51.5.63.09 1.25-.14 1.7-.59l.06-.06a2 2 0 0 1 2.83 2.83l-.06.06c-.45.45-.68 1.07-.59 1.7.07.49.26 1 .5 1.51H21a2 2 0 0 1 0 4h-.09c-.7 0-1.25.44-1.51 1z"/>
</svg>